<svg width="81" height="81" viewBox="0 0 81 81" fill="none" xmlns="http://www.w3.org/2000/svg">
<g clip-path="url(#clip0)">
<path d="M39.3477 58.5922L23.9343 43.1788C23.7315 42.9761 23.6176 42.7011 23.6176 42.4144C23.6176 42.1277 23.7315 41.8527 23.9343 41.6499L47.865 17.7191C47.8926 17.6916 47.9201 17.6641 47.9476 17.6366C52.7368 13.7846 59.1214 12.6563 67.4645 14.1867C67.68 14.2263 67.8784 14.3305 68.0334 14.4855C68.1883 14.6404 68.2925 14.8388 68.3322 15.0543C69.8702 23.4035 68.7373 29.7851 64.8792 34.5728C64.8554 34.6027 64.8298 34.6313 64.8027 34.6584L40.8727 58.5884C40.6706 58.7905 40.3968 58.9043 40.111 58.905C39.8252 58.9058 39.5508 58.7933 39.3477 58.5922V58.5922ZM26.2276 42.4144L40.1121 56.2989L63.2372 33.1738C66.5869 28.9939 67.5792 23.5801 66.3431 16.1903C58.954 14.958 53.5402 15.9502 49.3549 19.2931L26.2276 42.4144Z" fill="white"/>
<path d="M18.4165 40.8198C18.3109 40.7143 18.2282 40.5882 18.1738 40.4493C18.1193 40.3103 18.0942 40.1616 18.1 40.0125L18.1887 37.8568C18.2639 35.661 18.9704 33.5335 20.2237 31.7289C21.477 29.9244 23.2239 28.5194 25.2551 27.6821L25.3859 27.6294C29.7376 25.894 34.5911 25.9041 38.9356 27.6577C39.0928 27.7314 39.2299 27.8419 39.3354 27.9799C39.4409 28.1178 39.5116 28.2791 39.5415 28.4502C39.5714 28.6212 39.5597 28.797 39.5073 28.9626C39.4549 29.1281 39.3634 29.2786 39.2406 29.4013L28.4857 40.1562C28.3559 40.2859 28.1952 40.3804 28.0188 40.4308C27.8424 40.4812 27.6561 40.4859 27.4774 40.4444C24.8448 39.9118 22.1158 40.1233 19.5968 41.0552C19.4289 41.1243 19.2465 41.1499 19.0661 41.1299C18.8857 41.1099 18.7133 41.0447 18.5648 40.9406C18.512 40.9046 18.4624 40.8642 18.4165 40.8198V40.8198ZM25.658 28.6858L26.0609 29.688C24.4157 30.3696 23.0019 31.511 21.9889 32.9756C20.9758 34.4401 20.4064 36.1656 20.349 37.9455L20.3237 38.5517C22.6202 37.93 25.0243 37.815 27.3696 38.2146L36.4878 29.0963C33.0809 28.1724 29.4677 28.3631 26.1771 29.6406L25.658 28.6858Z" fill="white"/>
<path d="M41.7135 64.1169C41.6684 64.0718 41.6273 64.0229 41.5905 63.9709C41.4863 63.8223 41.4212 63.6499 41.4011 63.4695C41.3811 63.2892 41.4068 63.1067 41.4758 62.9389C42.4077 60.4198 42.6192 57.6908 42.0866 55.0583C42.0451 54.8795 42.0498 54.6932 42.1002 54.5168C42.1507 54.3404 42.2451 54.1798 42.3748 54.05L53.132 43.2928C53.2547 43.1699 53.4052 43.0784 53.5708 43.026C53.7363 42.9737 53.9121 42.9619 54.0831 42.9919C54.2542 43.0218 54.4155 43.0925 54.5535 43.1979C54.6914 43.3034 54.8019 43.4406 54.8757 43.5978C56.6292 47.9423 56.6394 52.7957 54.9039 57.1475L54.8512 57.2782C54.014 59.3095 52.6089 61.0564 50.8044 62.3096C48.9998 63.5629 46.8723 64.2695 44.6765 64.3447L42.5208 64.4333C42.3717 64.4392 42.223 64.414 42.084 64.3596C41.9451 64.3051 41.819 64.2225 41.7135 64.1169V64.1169ZM44.3187 55.1637C44.7183 57.509 44.6033 59.9132 43.9816 62.2096L44.5878 62.1844C46.367 62.1267 48.0919 61.5574 49.556 60.5448C51.02 59.5322 52.1612 58.1192 52.843 56.4748L53.8911 56.7584L52.8851 56.3639C54.1626 53.0732 54.3533 49.4601 53.4293 46.0532L44.3187 55.1637Z" fill="white"/>
<path d="M52.6429 29.8906C51.8464 29.0944 51.3039 28.0798 51.084 26.9753C50.8641 25.8707 50.9767 24.7258 51.4075 23.6852C51.8384 22.6447 52.5681 21.7552 53.5044 21.1294C54.4408 20.5036 55.5417 20.1696 56.6679 20.1694C57.7941 20.1693 58.8951 20.5032 59.8316 21.1288C60.768 21.7545 61.4979 22.6438 61.929 23.6842C62.36 24.7247 62.4728 25.8696 62.2531 26.9742C62.0334 28.0788 61.4911 29.0934 60.6948 29.8898C59.6262 30.9559 58.1784 31.5547 56.669 31.5549C55.1595 31.555 53.7117 30.9565 52.6429 29.8906V29.8906ZM59.1659 23.3676C58.672 22.8734 58.0427 22.5368 57.3575 22.4004C56.6723 22.2639 55.9621 22.3338 55.3166 22.601C54.6711 22.8683 54.1194 23.321 53.7312 23.9018C53.343 24.4827 53.1358 25.1656 53.1358 25.8643C53.1358 26.5629 53.343 27.2458 53.7312 27.8267C54.1194 28.4076 54.6711 28.8603 55.3166 29.1275C55.9621 29.3948 56.6723 29.4646 57.3575 29.3281C58.0427 29.1917 58.672 28.8551 59.1659 28.3609C59.827 27.6982 60.1982 26.8003 60.1982 25.8643C60.1982 24.9282 59.827 24.0303 59.1659 23.3676V23.3676Z" fill="white"/>
<path d="M35.3962 60.9612L21.5652 47.1302C21.3625 46.9274 21.2486 46.6525 21.2486 46.3657C21.2486 46.079 21.3625 45.804 21.5652 45.6013L24.7254 42.4411C24.9282 42.2384 25.2031 42.1245 25.4899 42.1245C25.7766 42.1245 26.0516 42.2384 26.2543 42.4411L40.0853 56.2721C40.2881 56.4749 40.402 56.7498 40.402 57.0366C40.402 57.3233 40.2881 57.5983 40.0853 57.801L36.9251 60.9612C36.7224 61.1639 36.4474 61.2778 36.1607 61.2778C35.874 61.2778 35.599 61.1639 35.3962 60.9612ZM23.8586 46.3657L36.1607 58.6679L37.792 57.0366L25.4899 44.7344L23.8586 46.3657Z" fill="white"/>
<path d="M14.5813 68.0546C14.0984 67.5246 13.7846 66.8625 13.6802 66.1531C13.5757 65.4437 13.6853 64.7193 13.995 64.0726C14.8237 61.8929 15.3649 59.6146 15.6049 57.2951C16.1393 53.3314 16.5612 50.2003 23.4145 46.94C23.616 46.8439 23.8424 46.8125 24.0626 46.8503C24.2827 46.8881 24.4857 46.9931 24.6437 47.1509L35.3642 57.8714C35.5223 58.0294 35.6275 58.2325 35.6655 58.4528C35.7034 58.6731 35.6721 58.8997 35.5759 59.1014C34.7696 60.9472 33.659 62.6445 32.2904 64.1223C30.1331 66.2795 27.875 66.6052 25.2606 66.9828C22.9628 67.2436 20.7078 67.797 18.5503 68.6294C17.9079 68.9403 17.1873 69.052 16.4809 68.9504C15.7746 68.8488 15.1147 68.5384 14.5859 68.0591L14.5813 68.0546ZM23.6614 49.2264C18.5243 51.824 18.2422 53.9132 17.7484 57.5856C17.4848 60.0773 16.8999 62.5244 16.0086 64.8661C15.7326 65.5655 15.7716 66.187 16.1118 66.5272C16.4481 66.8636 17.062 66.898 17.7522 66.6235C20.0681 65.7288 22.4879 65.1311 24.954 64.8447C27.4576 64.4816 29.1149 64.2446 30.7638 62.5957C31.7949 61.4872 32.6477 60.2254 33.2918 58.8553L23.6614 49.2264Z" fill="white"/>
<path d="M21.7854 60.7969C21.4674 60.4526 21.2581 60.022 21.184 59.5592C21.1099 59.0964 21.1742 58.6219 21.3688 58.1955C21.7762 57.1228 22.0427 56.0016 22.1615 54.8603C22.4344 52.8628 22.6714 51.1398 25.8744 49.4519C26.0786 49.3454 26.3114 49.3069 26.5389 49.342C26.7665 49.377 26.9769 49.4838 27.1396 49.6468L32.8728 55.3801C33.0355 55.5428 33.1421 55.7531 33.177 55.9805C33.2119 56.2079 33.1734 56.4405 33.067 56.6445C32.6796 57.4287 32.1766 58.1502 31.5748 58.7849C30.5127 59.771 29.1321 60.3433 27.6838 60.3979C26.5537 60.5272 25.4445 60.7995 24.383 61.2082C23.9584 61.4036 23.4856 61.469 23.024 61.3964C22.5623 61.3238 22.1325 61.1163 21.7885 60.8L21.7854 60.7969ZM26.1909 51.7559C24.6284 52.7344 24.516 53.5592 24.2989 55.1508C24.1579 56.4629 23.8483 57.7515 23.3777 58.9844C23.3336 59.0764 23.3154 59.1787 23.325 59.2803C23.3258 59.2566 23.4236 59.2596 23.5795 59.1969C24.8006 58.7233 26.0771 58.4071 27.3781 58.2559C28.3591 58.2547 29.3067 57.8994 30.0467 57.2553C30.3201 56.9724 30.5606 56.6595 30.7638 56.3227L26.1909 51.7559Z" fill="white"/>
<path d="M35.8994 46.6341C35.6967 46.4314 35.5828 46.1564 35.5828 45.8697C35.5828 45.5829 35.6967 45.308 35.8994 45.1052L40.3806 40.6241C40.5833 40.4213 40.8583 40.3074 41.145 40.3074C41.4317 40.3074 41.7067 40.4213 41.9095 40.6241C42.1122 40.8268 42.2261 41.1018 42.2261 41.3885C42.2261 41.6752 42.1122 41.9502 41.9095 42.153L37.4283 46.6341C37.2256 46.8368 36.9506 46.9507 36.6639 46.9507C36.3772 46.9507 36.1022 46.8368 35.8994 46.6341Z" fill="white"/>
<path d="M32.3253 43.0221C32.1225 42.8194 32.0086 42.5444 32.0086 42.2577C32.0086 41.971 32.1225 41.696 32.3253 41.4933L34.296 39.5225C34.4987 39.3198 34.7737 39.2059 35.0604 39.2059C35.3471 39.2059 35.6221 39.3198 35.8249 39.5225C36.0276 39.7253 36.1415 40.0003 36.1415 40.287C36.1415 40.5737 36.0276 40.8487 35.8249 41.0514L33.8541 43.0221C33.6514 43.2249 33.3764 43.3388 33.0897 43.3388C32.803 43.3388 32.528 43.2249 32.3253 43.0221Z" fill="white"/>
<path d="M39.5019 50.1988C39.2992 49.996 39.1853 49.7211 39.1853 49.4343C39.1853 49.1476 39.2992 48.8726 39.5019 48.6699L41.4726 46.6992C41.6754 46.4964 41.9503 46.3825 42.2371 46.3825C42.5238 46.3825 42.7988 46.4964 43.0015 46.6992C43.2042 46.9019 43.3181 47.1769 43.3181 47.4636C43.3181 47.7503 43.2042 48.0253 43.0015 48.2281L41.0308 50.1988C40.828 50.4015 40.5531 50.5154 40.2663 50.5154C39.9796 50.5154 39.7046 50.4015 39.5019 50.1988Z" fill="white"/>
</g>
<defs>
<clipPath id="clip0">
<rect width="80" height="80" fill="white" transform="translate(80.5492 0.549202) rotate(90)"/>
</clipPath>
</defs>
</svg>
