<svg width="24" height="24" viewBox="0 0 24 24" fill="none" xmlns="http://www.w3.org/2000/svg">
<path d="M10.9666 23.518C11.3866 23.5077 11.7896 23.3404 12.1044 23.0455C12.4191 22.7506 12.6254 22.3473 12.6866 21.9067H9.17993C9.24291 22.3592 9.45882 22.7721 9.78747 23.0685C10.1161 23.3648 10.5352 23.5246 10.9666 23.518Z" fill="white"/>
<path d="M10.9666 23.518C11.3866 23.5077 11.7896 23.3404 12.1044 23.0455C12.4191 22.7506 12.6254 22.3473 12.6866 21.9067H9.17993C9.24291 22.3592 9.45882 22.7721 9.78747 23.0685C10.1161 23.3648 10.5352 23.5246 10.9666 23.518Z" stroke="white"/>
<path d="M20.7718 18.4149C20.1246 17.8254 19.558 17.1496 19.0872 16.4057C18.5733 15.3788 18.2653 14.2573 18.1812 13.1072V9.71956C18.1785 9.30807 18.1426 8.89752 18.0738 8.49206C17.5456 8.38417 17.0379 8.18964 16.5705 7.91603C16.7486 8.50224 16.8392 9.11259 16.8389 9.72642V13.114C16.9212 14.5171 17.2989 15.8855 17.9463 17.1257C18.4097 17.8759 18.9595 18.5666 19.5839 19.183H2.39597C3.02041 18.5666 3.5702 17.8759 4.03356 17.1257C4.68095 15.8855 5.05868 14.5171 5.14094 13.114V9.71956C5.13741 8.92593 5.28712 8.13938 5.5815 7.40495C5.87589 6.67052 6.30917 6.00264 6.85652 5.43954C7.40388 4.87645 8.05456 4.4292 8.77132 4.12341C9.48808 3.81762 10.2568 3.65929 11.0336 3.6575C12.1703 3.65843 13.2816 4.00192 14.2282 4.64498C14.1238 4.25341 14.0653 3.85058 14.0537 3.44492V3.01289C13.3529 2.66066 12.6001 2.42896 11.8255 2.32714V1.46309C11.8255 1.22029 11.7311 0.987432 11.5631 0.815746C11.3951 0.64406 11.1672 0.547607 10.9295 0.547607C10.6919 0.547607 10.464 0.64406 10.296 0.815746C10.128 0.987432 10.0336 1.22029 10.0336 1.46309V2.36143C8.29914 2.61142 6.71179 3.49411 5.56458 4.84655C4.41736 6.19899 3.78774 7.92984 3.79195 9.71956V13.1072C3.70789 14.2573 3.39985 15.3788 2.88591 16.4057C2.42341 17.1479 1.8659 17.8236 1.22819 18.4149C1.1566 18.4792 1.09922 18.5583 1.05988 18.647C1.02053 18.7356 1.00012 18.8319 1 18.9292V19.8619C1 20.0437 1.07071 20.2182 1.19657 20.3468C1.32244 20.4754 1.49314 20.5476 1.67114 20.5476H20.3289C20.5069 20.5476 20.6776 20.4754 20.8034 20.3468C20.9293 20.2182 21 20.0437 21 19.8619V18.9292C20.9999 18.8319 20.9795 18.7356 20.9401 18.647C20.9008 18.5583 20.8434 18.4792 20.7718 18.4149Z" fill="white"/>
<path d="M18.9666 7.06667C20.8076 7.06667 22.2999 5.48474 22.2999 3.53333C22.2999 1.58193 20.8076 0 18.9666 0C17.1257 0 15.6333 1.58193 15.6333 3.53333C15.6333 5.48474 17.1257 7.06667 18.9666 7.06667Z" fill="url(#paint0_linear)"/>
<path d="M18.9666 7.06667C20.8076 7.06667 22.2999 5.48474 22.2999 3.53333C22.2999 1.58193 20.8076 0 18.9666 0C17.1257 0 15.6333 1.58193 15.6333 3.53333C15.6333 5.48474 17.1257 7.06667 18.9666 7.06667Z" stroke="white"/>
<defs>
<linearGradient id="paint0_linear" x1="18.9666" y1="0" x2="18.9666" y2="7.06667" gradientUnits="userSpaceOnUse">
<stop stop-color="#326CFF"/>
<stop offset="1" stop-color="#26FFF2"/>
</linearGradient>
</defs>
</svg>
