<svg width="28" height="28" viewBox="0 0 28 28" fill="none" xmlns="http://www.w3.org/2000/svg">
<path d="M12.9666 25.518C13.3866 25.5077 13.7896 25.3404 14.1044 25.0455C14.4191 24.7506 14.6254 24.3473 14.6866 23.9067H11.1799C11.2429 24.3592 11.4588 24.7721 11.7875 25.0685C12.1161 25.3648 12.5352 25.5246 12.9666 25.518Z" fill="white"/>
<path d="M12.9666 25.518C13.3866 25.5077 13.7896 25.3404 14.1044 25.0455C14.4191 24.7506 14.6254 24.3473 14.6866 23.9067H11.1799C11.2429 24.3592 11.4588 24.7721 11.7875 25.0685C12.1161 25.3648 12.5352 25.5246 12.9666 25.518Z" stroke="white"/>
<path d="M22.7718 20.4149C22.1246 19.8254 21.558 19.1496 21.0872 18.4057C20.5733 17.3788 20.2653 16.2573 20.1812 15.1072V11.7196C20.1785 11.3081 20.1426 10.8975 20.0738 10.4921C19.5456 10.3842 19.0379 10.1896 18.5705 9.91603C18.7486 10.5022 18.8392 11.1126 18.8389 11.7264V15.114C18.9212 16.5171 19.2989 17.8855 19.9463 19.1257C20.4097 19.8759 20.9595 20.5666 21.5839 21.183H4.39597C5.02041 20.5666 5.5702 19.8759 6.03356 19.1257C6.68095 17.8855 7.05868 16.5171 7.14094 15.114V11.7196C7.13741 10.9259 7.28712 10.1394 7.5815 9.40495C7.87589 8.67052 8.30916 8.00264 8.85652 7.43954C9.40388 6.87645 10.0546 6.4292 10.7713 6.12341C11.4881 5.81762 12.2568 5.65929 13.0336 5.6575C14.1703 5.65843 15.2816 6.00192 16.2282 6.64498C16.1238 6.25341 16.0653 5.85058 16.0537 5.44492V5.01289C15.3529 4.66066 14.6001 4.42896 13.8255 4.32714V3.46309C13.8255 3.22029 13.7311 2.98743 13.5631 2.81575C13.3951 2.64406 13.1672 2.54761 12.9295 2.54761C12.6919 2.54761 12.464 2.64406 12.296 2.81575C12.128 2.98743 12.0336 3.22029 12.0336 3.46309V4.36143C10.2991 4.61142 8.71179 5.49411 7.56458 6.84655C6.41736 8.19899 5.78774 9.92984 5.79195 11.7196V15.1072C5.70789 16.2573 5.39985 17.3788 4.88591 18.4057C4.42341 19.1479 3.8659 19.8236 3.22819 20.4149C3.1566 20.4792 3.09922 20.5583 3.05988 20.647C3.02053 20.7356 3.00012 20.8319 3 20.9292V21.8619C3 22.0437 3.07071 22.2182 3.19657 22.3468C3.32244 22.4754 3.49314 22.5476 3.67114 22.5476H22.3289C22.5069 22.5476 22.6776 22.4754 22.8034 22.3468C22.9293 22.2182 23 22.0437 23 21.8619V20.9292C22.9999 20.8319 22.9795 20.7356 22.9401 20.647C22.9008 20.5583 22.8434 20.4792 22.7718 20.4149V20.4149Z" fill="white"/>
<path d="M20.9666 9.06667C22.8076 9.06667 24.2999 7.48474 24.2999 5.53333C24.2999 3.58193 22.8076 2 20.9666 2C19.1257 2 17.6333 3.58193 17.6333 5.53333C17.6333 7.48474 19.1257 9.06667 20.9666 9.06667Z" fill="url(#paint0_linear)"/>
<path d="M20.9666 9.06667C22.8076 9.06667 24.2999 7.48474 24.2999 5.53333C24.2999 3.58193 22.8076 2 20.9666 2C19.1257 2 17.6333 3.58193 17.6333 5.53333C17.6333 7.48474 19.1257 9.06667 20.9666 9.06667Z" stroke="white"/>
<defs>
<linearGradient id="paint0_linear" x1="20.9666" y1="2" x2="20.9666" y2="9.06667" gradientUnits="userSpaceOnUse">
<stop stop-color="#326CFF"/>
<stop offset="1" stop-color="#26FFF2"/>
</linearGradient>
</defs>
</svg>
