<svg width="24" height="24" viewBox="0 0 24 24" fill="none" xmlns="http://www.w3.org/2000/svg">
<path d="M15.9739 14.6891C16.5539 14.3844 17.2179 14.2109 17.9249 14.2109H17.9273C17.9992 14.2109 18.0328 14.1266 17.98 14.0797C17.2447 13.4344 16.4048 12.9132 15.4946 12.5375C15.485 12.5328 15.4754 12.5305 15.4658 12.5258C16.9542 11.4687 17.9225 9.75078 17.9225 7.8125C17.9225 4.60156 15.2669 2 11.9904 2C8.71402 2 6.06077 4.60156 6.06077 7.8125C6.06077 9.75078 7.02907 11.4687 8.51988 12.5258C8.51029 12.5305 8.50071 12.5328 8.49112 12.5375C7.41975 12.9805 6.45864 13.6156 5.63174 14.4266C4.80962 15.229 4.15511 16.1803 3.70472 17.2273C3.26158 18.2526 3.02243 19.3512 3.00006 20.4641C2.99942 20.4891 3.00391 20.514 3.01326 20.5373C3.02261 20.5605 3.03663 20.5818 3.0545 20.5997C3.07237 20.6176 3.09372 20.6318 3.1173 20.6415C3.14088 20.6513 3.16622 20.6563 3.1918 20.6562H4.62748C4.73055 20.6562 4.81683 20.5742 4.81923 20.4734C4.86716 18.6641 5.60777 16.9695 6.91882 15.6852C8.27301 14.3563 10.0754 13.625 11.9928 13.625C13.3518 13.625 14.6557 13.993 15.7798 14.682C15.8087 14.6998 15.8418 14.7098 15.8759 14.711C15.91 14.7122 15.9438 14.7047 15.9739 14.6891ZM11.9928 11.8438C10.8951 11.8438 9.86209 11.4242 9.08313 10.6625C8.69987 10.2887 8.39603 9.84443 8.18912 9.35529C7.98221 8.86616 7.87632 8.34183 7.87754 7.8125C7.87754 6.73672 8.30657 5.72422 9.08313 4.9625C9.85969 4.20078 10.8927 3.78125 11.9928 3.78125C13.093 3.78125 14.1236 4.20078 14.9025 4.9625C15.2858 5.33631 15.5896 5.78057 15.7966 6.26971C16.0035 6.75884 16.1094 7.28317 16.1081 7.8125C16.1081 8.88828 15.6791 9.90078 14.9025 10.6625C14.1236 11.4242 13.0906 11.8438 11.9928 11.8438ZM20.8083 17.4219H18.7949V15.4531C18.7949 15.35 18.7087 15.2656 18.6032 15.2656H17.261C17.1555 15.2656 17.0693 15.35 17.0693 15.4531V17.4219H15.0559C14.9505 17.4219 14.8642 17.5063 14.8642 17.6094V18.9219C14.8642 19.025 14.9505 19.1094 15.0559 19.1094H17.0693V21.0781C17.0693 21.1812 17.1555 21.2656 17.261 21.2656H18.6032C18.7087 21.2656 18.7949 21.1812 18.7949 21.0781V19.1094H20.8083C20.9137 19.1094 21 19.025 21 18.9219V17.6094C21 17.5063 20.9137 17.4219 20.8083 17.4219Z" fill="white"/>
</svg>
