<svg width="28" height="28" viewBox="0 0 28 28" fill="none" xmlns="http://www.w3.org/2000/svg">
<path d="M17.9739 16.6891C18.5539 16.3844 19.2179 16.2109 19.9249 16.2109H19.9273C19.9992 16.2109 20.0328 16.1266 19.98 16.0797C19.2447 15.4344 18.4048 14.9132 17.4946 14.5375C17.485 14.5328 17.4754 14.5305 17.4658 14.5258C18.9542 13.4687 19.9225 11.7508 19.9225 9.8125C19.9225 6.60156 17.2669 4 13.9904 4C10.714 4 8.06077 6.60156 8.06077 9.8125C8.06077 11.7508 9.02907 13.4687 10.5199 14.5258C10.5103 14.5305 10.5007 14.5328 10.4911 14.5375C9.41975 14.9805 8.45864 15.6156 7.63174 16.4266C6.80962 17.229 6.15511 18.1803 5.70472 19.2273C5.26158 20.2526 5.02243 21.3512 5.00006 22.4641C4.99942 22.4891 5.00391 22.514 5.01326 22.5373C5.02261 22.5605 5.03663 22.5818 5.0545 22.5997C5.07237 22.6176 5.09372 22.6318 5.1173 22.6415C5.14088 22.6513 5.16622 22.6563 5.1918 22.6562H6.62748C6.73055 22.6562 6.81683 22.5742 6.81923 22.4734C6.86716 20.6641 7.60777 18.9695 8.91882 17.6852C10.273 16.3563 12.0754 15.625 13.9928 15.625C15.3518 15.625 16.6557 15.993 17.7798 16.682C17.8087 16.6998 17.8418 16.7098 17.8759 16.711C17.91 16.7122 17.9438 16.7047 17.9739 16.6891V16.6891ZM13.9928 13.8438C12.8951 13.8438 11.8621 13.4242 11.0831 12.6625C10.6999 12.2887 10.396 11.8444 10.1891 11.3553C9.98221 10.8662 9.87632 10.3418 9.87754 9.8125C9.87754 8.73672 10.3066 7.72422 11.0831 6.9625C11.8597 6.20078 12.8927 5.78125 13.9928 5.78125C15.093 5.78125 16.1236 6.20078 16.9025 6.9625C17.2858 7.33631 17.5896 7.78057 17.7966 8.26971C18.0035 8.75884 18.1094 9.28317 18.1081 9.8125C18.1081 10.8883 17.6791 11.9008 16.9025 12.6625C16.1236 13.4242 15.0906 13.8438 13.9928 13.8438ZM22.8083 19.4219H20.7949V17.4531C20.7949 17.35 20.7087 17.2656 20.6032 17.2656H19.261C19.1555 17.2656 19.0693 17.35 19.0693 17.4531V19.4219H17.0559C16.9505 19.4219 16.8642 19.5062 16.8642 19.6094V20.9219C16.8642 21.025 16.9505 21.1094 17.0559 21.1094H19.0693V23.0781C19.0693 23.1813 19.1555 23.2656 19.261 23.2656H20.6032C20.7087 23.2656 20.7949 23.1813 20.7949 23.0781V21.1094H22.8083C22.9137 21.1094 23 21.025 23 20.9219V19.6094C23 19.5062 22.9137 19.4219 22.8083 19.4219Z" fill="white"/>
</svg>
